<svg width="20" height="20" viewBox="0 0 20 20" fill="none" xmlns="http://www.w3.org/2000/svg">
<path d="M5.55556 4.10256C5.55556 4.37458 5.43849 4.63546 5.23012 4.8278C5.02174 5.02015 4.73913 5.12821 4.44444 5.12821C4.14976 5.12821 3.86714 5.02015 3.65877 4.8278C3.4504 4.63546 3.33333 4.37458 3.33333 4.10256C3.33333 3.83055 3.4504 3.56967 3.65877 3.37733C3.86714 3.18498 4.14976 3.07692 4.44444 3.07692C4.73913 3.07692 5.02174 3.18498 5.23012 3.37733C5.43849 3.56967 5.55556 3.83055 5.55556 4.10256ZM4.44444 8.20513C4.73913 8.20513 5.02174 8.09707 5.23012 7.90473C5.43849 7.71238 5.55556 7.4515 5.55556 7.17949C5.55556 6.90747 5.43849 6.6466 5.23012 6.45425C5.02174 6.26191 4.73913 6.15385 4.44444 6.15385C4.14976 6.15385 3.86714 6.26191 3.65877 6.45425C3.4504 6.6466 3.33333 6.90747 3.33333 7.17949C3.33333 7.4515 3.4504 7.71238 3.65877 7.90473C3.86714 8.09707 4.14976 8.20513 4.44444 8.20513ZM5.55556 10.2564C5.55556 10.5284 5.43849 10.7893 5.23012 10.9816C5.02174 11.174 4.73913 11.2821 4.44444 11.2821C4.14976 11.2821 3.86714 11.174 3.65877 10.9816C3.4504 10.7893 3.33333 10.5284 3.33333 10.2564C3.33333 9.98439 3.4504 9.72352 3.65877 9.53117C3.86714 9.33883 4.14976 9.23077 4.44444 9.23077C4.73913 9.23077 5.02174 9.33883 5.23012 9.53117C5.43849 9.72352 5.55556 9.98439 5.55556 10.2564ZM5.55556 13.3333C5.55556 13.6054 5.43849 13.8662 5.23012 14.0586C5.02174 14.2509 4.73913 14.359 4.44444 14.359C4.14976 14.359 3.86714 14.2509 3.65877 14.0586C3.4504 13.8662 3.33333 13.6054 3.33333 13.3333C3.33333 13.0613 3.4504 12.8004 3.65877 12.6081C3.86714 12.4158 4.14976 12.3077 4.44444 12.3077C4.73913 12.3077 5.02174 12.4158 5.23012 12.6081C5.43849 12.8004 5.55556 13.0613 5.55556 13.3333ZM4.44444 17.4359C4.73913 17.4359 5.02174 17.3278 5.23012 17.1355C5.43849 16.9432 5.55556 16.6823 5.55556 16.4103C5.55556 16.1382 5.43849 15.8774 5.23012 15.685C5.02174 15.4927 4.73913 15.3846 4.44444 15.3846C4.14976 15.3846 3.86714 15.4927 3.65877 15.685C3.4504 15.8774 3.33333 16.1382 3.33333 16.4103C3.33333 16.6823 3.4504 16.9432 3.65877 17.1355C3.86714 17.3278 4.14976 17.4359 4.44444 17.4359ZM12.2222 14.359C12.5169 14.359 12.7995 14.2509 13.0079 14.0586C13.2163 13.8662 13.3333 13.6054 13.3333 13.3333C13.3333 13.0613 13.2163 12.8004 13.0079 12.6081C12.7995 12.4158 12.5169 12.3077 12.2222 12.3077C11.9275 12.3077 11.6449 12.4158 11.4365 12.6081C11.2282 12.8004 11.1111 13.0613 11.1111 13.3333C11.1111 13.6054 11.2282 13.8662 11.4365 14.0586C11.6449 14.2509 11.9275 14.359 12.2222 14.359ZM15.5556 14.359C15.8502 14.359 16.1329 14.2509 16.3412 14.0586C16.5496 13.8662 16.6667 13.6054 16.6667 13.3333C16.6667 13.0613 16.5496 12.8004 16.3412 12.6081C16.1329 12.4158 15.8502 12.3077 15.5556 12.3077C15.2609 12.3077 14.9783 12.4158 14.7699 12.6081C14.5615 12.8004 14.4444 13.0613 14.4444 13.3333C14.4444 13.6054 14.5615 13.8662 14.7699 14.0586C14.9783 14.2509 15.2609 14.359 15.5556 14.359ZM15.5556 11.2821C15.8502 11.2821 16.1329 11.174 16.3412 10.9816C16.5496 10.7893 16.6667 10.5284 16.6667 10.2564C16.6667 9.98439 16.5496 9.72352 16.3412 9.53117C16.1329 9.33883 15.8502 9.23077 15.5556 9.23077C15.2609 9.23077 14.9783 9.33883 14.7699 9.53117C14.5615 9.72352 14.4444 9.98439 14.4444 10.2564C14.4444 10.5284 14.5615 10.7893 14.7699 10.9816C14.9783 11.174 15.2609 11.2821 15.5556 11.2821ZM13.3333 10.2564C13.3333 10.5284 13.2163 10.7893 13.0079 10.9816C12.7995 11.174 12.5169 11.2821 12.2222 11.2821C11.9275 11.2821 11.6449 11.174 11.4365 10.9816C11.2282 10.7893 11.1111 10.5284 11.1111 10.2564C11.1111 9.98439 11.2282 9.72352 11.4365 9.53117C11.6449 9.33883 11.9275 9.23077 12.2222 9.23077C12.5169 9.23077 12.7995 9.33883 13.0079 9.53117C13.2163 9.72352 13.3333 9.98439 13.3333 10.2564ZM15.5556 8.20513C15.8502 8.20513 16.1329 8.09707 16.3412 7.90473C16.5496 7.71238 16.6667 7.4515 16.6667 7.17949C16.6667 6.90747 16.5496 6.6466 16.3412 6.45425C16.1329 6.26191 15.8502 6.15385 15.5556 6.15385C15.2609 6.15385 14.9783 6.26191 14.7699 6.45425C14.5615 6.6466 14.4444 6.90747 14.4444 7.17949C14.4444 7.4515 14.5615 7.71238 14.7699 7.90473C14.9783 8.09707 15.2609 8.20513 15.5556 8.20513ZM13.3333 7.17949C13.3333 7.4515 13.2163 7.71238 13.0079 7.90473C12.7995 8.09707 12.5169 8.20513 12.2222 8.20513C11.9275 8.20513 11.6449 8.09707 11.4365 7.90473C11.2282 7.71238 11.1111 7.4515 11.1111 7.17949C11.1111 6.90747 11.2282 6.6466 11.4365 6.45425C11.6449 6.26191 11.9275 6.15385 12.2222 6.15385C12.5169 6.15385 12.7995 6.26191 13.0079 6.45425C13.2163 6.6466 13.3333 6.90747 13.3333 7.17949ZM12.2222 3.07692V2.30769C12.2222 1.69565 11.9588 1.10868 11.49 0.675907C11.0211 0.243131 10.3853 0 9.72222 0H2.5C1.83696 0 1.20107 0.243131 0.732233 0.675907C0.263392 1.10868 0 1.69565 0 2.30769V19.2308C0 19.6554 0.373333 20 0.833333 20H19.1667C19.3877 20 19.5996 19.919 19.7559 19.7747C19.9122 19.6304 20 19.4348 20 19.2308V5.38462C20 4.77258 19.7366 4.18561 19.2678 3.75283C18.7989 3.32005 18.163 3.07692 17.5 3.07692H12.2222ZM1.66667 2.30769C1.66667 2.10368 1.75446 1.90802 1.91074 1.76376C2.06702 1.61951 2.27899 1.53846 2.5 1.53846H9.72222C9.94324 1.53846 10.1552 1.61951 10.3115 1.76376C10.4678 1.90802 10.5556 2.10368 10.5556 2.30769V3.07692H10.2778C9.61474 3.07692 8.97885 3.32005 8.51001 3.75283C8.04117 4.18561 7.77778 4.77258 7.77778 5.38462V18.4615H1.66667V2.30769ZM12.7778 18.4615V16.9231H15V18.4615H12.7778ZM16.6667 16.1538C16.6667 15.9498 16.5789 15.7542 16.4226 15.6099C16.2663 15.4657 16.0543 15.3846 15.8333 15.3846H11.9444C11.7234 15.3846 11.5115 15.4657 11.3552 15.6099C11.1989 15.7542 11.1111 15.9498 11.1111 16.1538V18.4615H9.44444V5.38462C9.44444 5.1806 9.53224 4.98495 9.68852 4.84069C9.8448 4.69643 10.0568 4.61538 10.2778 4.61538H17.5C17.721 4.61538 17.933 4.69643 18.0893 4.84069C18.2455 4.98495 18.3333 5.1806 18.3333 5.38462V18.4615H16.6667V16.1538Z" fill="white"/>
</svg>
