<svg width="20" height="17" viewBox="0 0 20 17" fill="none" xmlns="http://www.w3.org/2000/svg">
<path d="M17 3.57895H14V2.68421C14 1.97231 13.6839 1.28957 13.1213 0.786187C12.5587 0.2828 11.7956 0 11 0H9C8.20435 0 7.44129 0.2828 6.87868 0.786187C6.31607 1.28957 6 1.97231 6 2.68421V3.57895H3C2.20435 3.57895 1.44129 3.86175 0.87868 4.36513C0.316071 4.86852 0 5.55126 0 6.26316V14.3158C0 15.0277 0.316071 15.7104 0.87868 16.2138C1.44129 16.7172 2.20435 17 3 17H17C17.7956 17 18.5587 16.7172 19.1213 16.2138C19.6839 15.7104 20 15.0277 20 14.3158V6.26316C20 5.55126 19.6839 4.86852 19.1213 4.36513C18.5587 3.86175 17.7956 3.57895 17 3.57895ZM8 2.68421C8 2.44691 8.10536 2.21933 8.29289 2.05154C8.48043 1.88374 8.73478 1.78947 9 1.78947H11C11.2652 1.78947 11.5196 1.88374 11.7071 2.05154C11.8946 2.21933 12 2.44691 12 2.68421V3.57895H8V2.68421ZM18 14.3158C18 14.5531 17.8946 14.7807 17.7071 14.9485C17.5196 15.1163 17.2652 15.2105 17 15.2105H3C2.73478 15.2105 2.48043 15.1163 2.29289 14.9485C2.10536 14.7807 2 14.5531 2 14.3158V9.39474C4.54626 10.2985 7.26069 10.763 10 10.7637C12.7392 10.7622 15.4535 10.2977 18 9.39474V14.3158ZM18 7.43526C15.4784 8.42643 12.7542 8.93822 10 8.93822C7.24579 8.93822 4.5216 8.42643 2 7.43526V6.26316C2 6.02586 2.10536 5.79828 2.29289 5.63048C2.48043 5.46269 2.73478 5.36842 3 5.36842H17C17.2652 5.36842 17.5196 5.46269 17.7071 5.63048C17.8946 5.79828 18 6.02586 18 6.26316V7.43526Z" fill="white"/>
</svg>
