<svg width="20" height="16" viewBox="0 0 20 16" fill="none" xmlns="http://www.w3.org/2000/svg">
<path d="M10 0C9.22645 0 8.48459 0.421428 7.93761 1.17157C7.39062 1.92172 7.08333 2.93913 7.08333 4C7.08333 5.06087 7.39062 6.07828 7.93761 6.82843C8.48459 7.57857 9.22645 8 10 8C10.7735 8 11.5154 7.57857 12.0624 6.82843C12.6094 6.07828 12.9167 5.06087 12.9167 4C12.9167 2.93913 12.6094 1.92172 12.0624 1.17157C11.5154 0.421428 10.7735 0 10 0ZM10 2.28571C10.3315 2.28571 10.6495 2.46633 10.8839 2.78782C11.1183 3.10931 11.25 3.54534 11.25 4C11.25 4.45466 11.1183 4.89069 10.8839 5.21218C10.6495 5.53367 10.3315 5.71429 10 5.71429C9.66848 5.71429 9.35054 5.53367 9.11612 5.21218C8.8817 4.89069 8.75 4.45466 8.75 4C8.75 3.54534 8.8817 3.10931 9.11612 2.78782C9.35054 2.46633 9.66848 2.28571 10 2.28571ZM4.58333 3.42857C4.0308 3.42857 3.50089 3.72959 3.11019 4.26541C2.71949 4.80123 2.5 5.52795 2.5 6.28571C2.5 7.36 2.94167 8.28571 3.575 8.77714C3.875 9.00572 4.21667 9.14286 4.58333 9.14286C4.95 9.14286 5.29167 9.00572 5.59167 8.77714C5.9 8.53714 6.15833 8.19429 6.35 7.78286C5.7429 6.6978 5.41473 5.36768 5.41667 4V3.68C5.16667 3.52 4.88333 3.42857 4.58333 3.42857ZM15.4167 3.42857C15.1167 3.42857 14.8333 3.52 14.5833 3.68V4C14.5833 5.37143 14.2583 6.69714 13.65 7.78286C13.75 8 13.8583 8.17143 13.9833 8.34286C14.3676 8.85383 14.8814 9.14059 15.4167 9.14286C15.7833 9.14286 16.125 9.00572 16.425 8.77714C17.0583 8.28571 17.5 7.36 17.5 6.28571C17.5 5.52795 17.2805 4.80123 16.8898 4.26541C16.4991 3.72959 15.9692 3.42857 15.4167 3.42857ZM10 10.2857C8.05 10.2857 4.16667 11.6229 4.16667 14.2857V16H15.8333V14.2857C15.8333 11.6229 11.95 10.2857 10 10.2857ZM3.925 10.9143C2.31667 11.1771 0 12.2971 0 14.2857V16H2.5V13.7943C2.5 12.64 3.075 11.68 3.925 10.9143ZM16.075 10.9143C16.925 11.68 17.5 12.64 17.5 13.7943V16H20V14.2857C20 12.2971 17.6833 11.1771 16.075 10.9143ZM10 12.5714C11.275 12.5714 12.7 13.1429 13.525 13.7143H6.475C7.3 13.1429 8.725 12.5714 10 12.5714Z" fill="white"/>
</svg>
