<svg width="12" height="8" viewBox="0 0 12 8" fill="none" xmlns="http://www.w3.org/2000/svg">
<path d="M1.16667 7.33333C0.845834 7.33333 0.571084 7.2435 0.342418 7.06383C0.113751 6.88417 -0.000387899 6.66845 9.9038e-07 6.41667V0.916667C9.9038e-07 0.664584 0.114334 0.448709 0.343001 0.269042C0.571668 0.0893757 0.846223 -0.000304777 1.16667 7.78155e-07H10.5C10.8208 7.78155e-07 11.0956 0.089834 11.3243 0.269501C11.5529 0.449167 11.6671 0.66489 11.6667 0.916667V6.41667C11.6667 6.66875 11.5523 6.88463 11.3237 7.06429C11.095 7.24396 10.8204 7.33364 10.5 7.33333H1.16667ZM5.83333 4.125L10.5 1.83333V0.916667L5.83333 3.20833L1.16667 0.916667V1.83333L5.83333 4.125Z" fill="#151E3D" fill-opacity="0.6"/>
</svg>
