<svg width="58" height="48" viewBox="0 0 58 48" fill="none" xmlns="http://www.w3.org/2000/svg">
<path d="M55.9975 44.3072H52.1966V18.4575C52.1966 17.4781 51.7893 16.5389 51.0642 15.8463C50.3392 15.1538 49.3559 14.7647 48.3305 14.7647H37.6987C37.4424 14.7647 37.1965 14.862 37.0153 15.0351C36.834 15.2083 36.7322 15.4431 36.7322 15.6879V44.3072H32.8661V3.78094C32.8725 3.20574 32.7418 2.63669 32.4839 2.11687C32.2261 1.59704 31.8478 1.14007 31.3777 0.780535C30.7368 0.303325 29.9549 0.0310947 29.1429 0.00250697C28.3309 -0.0260808 27.5302 0.190427 26.8543 0.621282L7.52381 12.9183C6.99353 13.2563 6.55896 13.7142 6.25879 14.2514C5.95863 14.7886 5.80219 15.3883 5.8034 15.9972V44.3072H2.00254C1.503 44.3001 1.01921 44.474 0.648469 44.7939C0.27773 45.1138 0.0475556 45.5559 0.00424726 46.0313C-0.0133095 46.2838 0.0236877 46.5371 0.11294 46.7755C0.202193 47.0138 0.341795 47.2321 0.523076 47.4167C0.704357 47.6013 0.923444 47.7484 1.16673 47.8487C1.41001 47.9491 1.6723 48.0006 1.9373 48H56.0627C56.3277 48.0006 56.59 47.9491 56.8333 47.8487C57.0766 47.7484 57.2956 47.6013 57.4769 47.4167C57.6582 47.2321 57.7978 47.0138 57.8871 46.7755C57.9763 46.5371 58.0133 46.2838 57.9958 46.0313C57.9524 45.5559 57.7223 45.1138 57.3515 44.7939C56.9808 44.474 56.497 44.3001 55.9975 44.3072ZM16.4352 38.768C16.4358 39.0211 16.3818 39.2716 16.2768 39.504C16.1717 39.7364 16.0178 39.9457 15.8245 40.1188C15.6312 40.292 15.4027 40.4253 15.1532 40.5106C14.9037 40.5958 14.6385 40.6312 14.3741 40.6144C13.8759 40.573 13.4127 40.3528 13.0778 39.9982C12.7429 39.6436 12.5611 39.1809 12.5691 38.7034V35.1375C12.5623 34.6605 12.7445 34.1987 13.0793 33.8447C13.4141 33.4907 13.8766 33.2707 14.3741 33.2288C14.6385 33.212 14.9037 33.2473 15.1532 33.3326C15.4027 33.4178 15.6312 33.5512 15.8245 33.7243C16.0178 33.8975 16.1717 34.1068 16.2768 34.3391C16.3818 34.5715 16.4358 34.8221 16.4352 35.0752V38.768ZM16.4352 25.8432C16.4358 26.0963 16.3818 26.3468 16.2768 26.5792C16.1717 26.8116 16.0178 27.0208 15.8245 27.194C15.6312 27.3671 15.4027 27.5005 15.1532 27.5857C14.9037 27.671 14.6385 27.7063 14.3741 27.6896C13.8761 27.6476 13.4133 27.4273 13.0785 27.0728C12.7436 26.7183 12.5617 26.2559 12.5691 25.7785V22.2127C12.5623 21.7357 12.7445 21.2739 13.0793 20.9199C13.4141 20.5658 13.8766 20.3458 14.3741 20.3039C14.6385 20.2872 14.9037 20.3225 15.1532 20.4078C15.4027 20.493 15.6312 20.6264 15.8245 20.7995C16.0178 20.9727 16.1717 21.1819 16.2768 21.4143C16.3818 21.6467 16.4358 21.8972 16.4352 22.1503V25.8432ZM26.1004 38.768C26.101 39.0211 26.0471 39.2716 25.942 39.504C25.837 39.7364 25.683 39.9457 25.4897 40.1188C25.2965 40.292 25.068 40.4253 24.8184 40.5106C24.5689 40.5958 24.3037 40.6312 24.0393 40.6144C23.542 40.573 23.0795 40.3535 22.7447 39.9999C22.4099 39.6463 22.2276 39.1847 22.2343 38.708V35.1375C22.2281 34.6609 22.4107 34.1996 22.7454 33.8461C23.0801 33.4926 23.5422 33.2729 24.0393 33.2311C24.3037 33.2143 24.5689 33.2496 24.8184 33.3349C25.068 33.4201 25.2965 33.5535 25.4897 33.7267C25.683 33.8998 25.837 34.1091 25.942 34.3414C26.0471 34.5738 26.101 34.8244 26.1004 35.0775V38.768ZM26.1004 25.8432C26.101 26.0963 26.0471 26.3468 25.942 26.5792C25.837 26.8116 25.683 27.0208 25.4897 27.194C25.2965 27.3671 25.068 27.5005 24.8184 27.5857C24.5689 27.671 24.3037 27.7063 24.0393 27.6896C23.5422 27.6477 23.0801 27.428 22.7454 27.0745C22.4107 26.721 22.2281 26.2597 22.2343 25.7831V22.2127C22.2281 21.7361 22.4107 21.2748 22.7454 20.9213C23.0801 20.5678 23.5422 20.3481 24.0393 20.3063C24.3037 20.2895 24.5689 20.3248 24.8184 20.4101C25.068 20.4953 25.2965 20.6287 25.4897 20.8018C25.683 20.975 25.837 21.1842 25.942 21.4166C26.0471 21.649 26.101 21.8995 26.1004 22.1527V25.8432Z" fill="#B5C1E2"/>
</svg>
