<svg width="15" height="8" viewBox="0 0 15 8" fill="none" xmlns="http://www.w3.org/2000/svg">
<path d="M13.75 0.307556H5.625C4.9375 0.307556 4.375 0.8114 4.375 1.42721V6.46565C4.375 6.7626 4.5067 7.04739 4.74112 7.25736C4.97554 7.46734 5.29348 7.5853 5.625 7.5853H13.75C14.4438 7.5853 15 7.08706 15 6.46565V1.42721C15 1.13026 14.8683 0.845471 14.6339 0.635495C14.3995 0.425519 14.0815 0.307556 13.75 0.307556ZM13.75 6.46565H5.625V2.36212L9.6875 4.22634L13.75 2.36212V6.46565ZM9.6875 3.28024L5.625 1.42721H13.75L9.6875 3.28024ZM3.125 6.46565C3.125 6.56082 3.14375 6.65039 3.15625 6.74556H0.625C0.28 6.74556 0 6.49364 0 6.18573C0 5.87783 0.28 5.62591 0.625 5.62591H3.125V6.46565ZM1.875 1.1473H3.15625C3.14375 1.24247 3.125 1.33204 3.125 1.42721V2.26695H1.875C1.53125 2.26695 1.25 2.01503 1.25 1.70712C1.25 1.39922 1.53125 1.1473 1.875 1.1473ZM0.625 3.94643C0.625 3.63852 0.90625 3.3866 1.25 3.3866H3.125V4.50625H1.25C0.90625 4.50625 0.625 4.25433 0.625 3.94643Z" fill="#151E3D"/>
</svg>
