<svg width="20" height="18" viewBox="0 0 20 18" fill="none" xmlns="http://www.w3.org/2000/svg">
<path fill-rule="evenodd" clip-rule="evenodd" d="M8.138 0.110418C8.58591 -0.00685843 9.05903 -0.0311189 9.5196 0.039573C9.98016 0.110265 10.4154 0.273951 10.7906 0.517567C11.1658 0.761182 11.4706 1.07798 11.6805 1.44267C11.8905 1.80736 11.9999 2.20985 12 2.618V15.382C11.9999 15.7901 11.8905 16.1926 11.6805 16.5573C11.4706 16.922 11.1658 17.2388 10.7906 17.4824C10.4154 17.726 9.98016 17.8897 9.5196 17.9604C9.05903 18.0311 8.58591 18.0069 8.138 17.8896L2.138 16.3185C1.5201 16.1567 0.97841 15.8254 0.593282 15.3737C0.208154 14.922 0.000105789 14.374 0 13.8109V4.18906C0.000105789 3.62601 0.208154 3.07799 0.593282 2.62628C0.97841 2.17458 1.5201 1.84326 2.138 1.68148L8.138 0.110418ZM13 2.01751C13 1.78603 13.1054 1.56402 13.2929 1.40034C13.4804 1.23666 13.7348 1.1447 14 1.1447H17C17.7956 1.1447 18.5587 1.42057 19.1213 1.91162C19.6839 2.40267 20 3.06868 20 3.76313V4.63594C20 4.86743 19.8946 5.08943 19.7071 5.25311C19.5196 5.4168 19.2652 5.50876 19 5.50876C18.7348 5.50876 18.4804 5.4168 18.2929 5.25311C18.1054 5.08943 18 4.86743 18 4.63594V3.76313C18 3.53165 17.8946 3.30965 17.7071 3.14596C17.5196 2.98228 17.2652 2.89032 17 2.89032H14C13.7348 2.89032 13.4804 2.79836 13.2929 2.63468C13.1054 2.471 13 2.24899 13 2.01751ZM19 12.4912C19.2652 12.4912 19.5196 12.5832 19.7071 12.7469C19.8946 12.9106 20 13.1326 20 13.3641V14.2369C20 14.9313 19.6839 15.5973 19.1213 16.0884C18.5587 16.5794 17.7956 16.8553 17 16.8553H14C13.7348 16.8553 13.4804 16.7633 13.2929 16.5997C13.1054 16.436 13 16.214 13 15.9825C13 15.751 13.1054 15.529 13.2929 15.3653C13.4804 15.2016 13.7348 15.1097 14 15.1097H17C17.2652 15.1097 17.5196 15.0177 17.7071 14.854C17.8946 14.6904 18 14.4684 18 14.2369V13.3641C18 13.1326 18.1054 12.9106 18.2929 12.7469C18.4804 12.5832 18.7348 12.4912 19 12.4912ZM7 8.12719C6.73478 8.12719 6.48043 8.21915 6.29289 8.38283C6.10536 8.54651 6 8.76852 6 9C6 9.23148 6.10536 9.45349 6.29289 9.61717C6.48043 9.78085 6.73478 9.87281 7 9.87281H7.001C7.26622 9.87281 7.52057 9.78085 7.70811 9.61717C7.89564 9.45349 8.001 9.23148 8.001 9C8.001 8.76852 7.89564 8.54651 7.70811 8.38283C7.52057 8.21915 7.26622 8.12719 7.001 8.12719H7Z" fill="#EEEFFF"/>
</svg>
