<svg width="58" height="48" viewBox="0 0 58 48" fill="none" xmlns="http://www.w3.org/2000/svg">
<path d="M40.6 41.6V48H0V41.6C0 41.6 0 28.8001 20.3 28.8001C40.6 28.8001 40.6 41.6 40.6 41.6ZM30.45 11.2001C30.45 8.98499 29.8547 6.81959 28.7394 4.97776C27.6241 3.13594 26.0389 1.70041 24.1842 0.852715C22.3296 0.00501645 20.2887 -0.21678 18.3198 0.215373C16.3509 0.647526 14.5424 1.71422 13.1229 3.28056C11.7034 4.8469 10.7367 6.84255 10.345 9.01513C9.95339 11.1877 10.1544 13.4396 10.9226 15.4862C11.6909 17.5327 12.9918 19.2819 14.661 20.5126C16.3301 21.7432 18.2925 22.4001 20.3 22.4001C22.9919 22.4001 25.5736 21.2201 27.4771 19.1197C29.3806 17.0193 30.45 14.1705 30.45 11.2001ZM40.426 28.8001C42.2088 30.3225 43.6675 32.2574 44.6997 34.4689C45.7318 36.6803 46.3122 39.1144 46.4 41.6V48H58V41.6C58 41.6 58 29.9841 40.426 28.8001ZM37.7 0.000168252C35.7039 -0.0120964 33.7517 0.646424 32.103 1.88816C33.8646 4.60411 34.8118 7.86026 34.8118 11.2001C34.8118 14.54 33.8646 17.7961 32.103 20.5121C33.7517 21.7538 35.7039 22.4124 37.7 22.4001C40.3919 22.4001 42.9736 21.2201 44.8771 19.1197C46.7806 17.0193 47.85 14.1705 47.85 11.2001C47.85 8.22971 46.7806 5.38096 44.8771 3.28056C42.9736 1.18016 40.3919 0.000168252 37.7 0.000168252Z" fill="#B5C1E2"/>
</svg>
