<svg width="22" height="22" viewBox="0 0 22 22" fill="none" xmlns="http://www.w3.org/2000/svg">
<path d="M8.142 21C6.48803 20.4862 4.99009 19.5357 3.794 18.2409C4.17884 17.7661 4.41873 17.1826 4.48299 16.565C4.54726 15.9475 4.43296 15.3241 4.15472 14.7746C3.87649 14.225 3.44697 13.7743 2.92114 13.4802C2.39531 13.186 1.79708 13.0618 1.203 13.1234C1.06766 12.4337 0.999648 11.7315 1 11.0276C1 9.94039 1.16 8.8917 1.458 7.90647H1.5C2.00988 7.90664 2.51139 7.77161 2.95717 7.51412C3.40295 7.25664 3.7783 6.88519 4.04777 6.43487C4.31724 5.98454 4.47194 5.47019 4.49726 4.94039C4.52258 4.41058 4.4177 3.8828 4.1925 3.40689C5.3648 2.27124 6.78253 1.44571 8.326 1C8.57719 1.51311 8.95992 1.94392 9.43185 2.24477C9.90378 2.54562 10.4465 2.70478 11 2.70464C11.5535 2.70478 12.0962 2.54562 12.5681 2.24477C13.0401 1.94392 13.4228 1.51311 13.674 1C15.2175 1.44571 16.6352 2.27124 17.8075 3.40689C17.5807 3.88614 17.4759 4.41794 17.5031 4.95139C17.5304 5.48484 17.6888 6.00209 17.9632 6.45361C18.2376 6.90514 18.6188 7.27583 19.0703 7.53022C19.5218 7.7846 20.0286 7.91415 20.542 7.90647C20.8465 8.91652 21.0009 9.96901 21 11.0276C21 11.7454 20.93 12.4466 20.797 13.1239C20.2029 13.0623 19.6047 13.1866 19.0789 13.4807C18.553 13.7749 18.1235 14.2255 17.8453 14.7751C17.567 15.3246 17.4527 15.9481 17.517 16.5656C17.5813 17.1831 17.8212 17.7666 18.206 18.2415C17.0098 19.536 15.5119 20.4864 13.858 21C13.6638 20.3702 13.2824 19.8208 12.7687 19.4311C12.2551 19.0413 11.6357 18.8313 11 18.8313C10.3643 18.8313 9.74492 19.0413 9.23128 19.4311C8.71764 19.8208 8.33622 20.3702 8.142 21Z" stroke="white" stroke-width="2" stroke-linejoin="round"/>
<path d="M11 14.6689C11.4596 14.6689 11.9148 14.5747 12.3394 14.3917C12.764 14.2087 13.1499 13.9405 13.4749 13.6023C13.7999 13.2642 14.0577 12.8628 14.2336 12.421C14.4095 11.9793 14.5 11.5058 14.5 11.0276C14.5 10.5494 14.4095 10.0759 14.2336 9.63412C14.0577 9.19233 13.7999 8.79092 13.4749 8.4528C13.1499 8.11467 12.764 7.84646 12.3394 7.66347C11.9148 7.48048 11.4596 7.38629 11 7.38629C10.0717 7.38629 9.1815 7.76993 8.52513 8.4528C7.86875 9.13567 7.5 10.0618 7.5 11.0276C7.5 11.9933 7.86875 12.9195 8.52513 13.6023C9.1815 14.2852 10.0717 14.6689 11 14.6689Z" stroke="white" stroke-width="2" stroke-linejoin="round"/>
</svg>
